<?xml version="1.0" standalone="no"?>
<!DOCTYPE svg PUBLIC "-//W3C//DTD SVG 20010904//EN"
 "http://www.w3.org/TR/2001/REC-SVG-20010904/DTD/svg10.dtd">
<svg version="1.0" xmlns="http://www.w3.org/2000/svg"
 width="3264.000000pt" height="3264.000000pt" viewBox="0 0 3264.000000 3264.000000"
 preserveAspectRatio="xMidYMid meet">

<g transform="translate(0.000000,3264.000000) scale(0.100000,-0.100000)"
fill="#000000" stroke="none">
<path d="M29605 31189 c-33 -16 -65 -29 -72 -29 -7 0 -28 -21 -47 -46 -42 -55
-43 -65 -55 -389 l-8 -240 -41 -100 c-29 -74 -42 -121 -47 -179 -3 -43 -13
-97 -21 -120 -9 -23 -23 -61 -32 -86 -8 -25 -25 -58 -38 -75 -30 -42 -64 -110
-80 -164 -9 -31 -29 -62 -59 -91 -26 -26 -49 -61 -55 -82 -7 -24 -36 -63 -86
-115 -42 -43 -79 -83 -82 -88 -4 -6 -30 -29 -59 -51 -28 -23 -64 -55 -79 -73
-15 -18 -54 -51 -88 -73 -33 -23 -86 -63 -116 -88 -30 -26 -76 -57 -101 -69
-25 -12 -61 -36 -80 -55 -19 -18 -52 -39 -74 -46 -22 -7 -49 -19 -60 -26 -11
-7 -42 -18 -70 -24 -33 -7 -70 -27 -108 -56 -52 -40 -66 -46 -130 -53 -40 -5
-90 -16 -112 -24 -22 -9 -66 -21 -99 -26 -32 -6 -64 -15 -71 -21 -36 -30 -197
-82 -294 -96 -111 -15 -217 -46 -263 -77 -14 -10 -74 -27 -132 -37 -58 -10
-110 -21 -115 -24 -5 -4 -69 -11 -143 -16 -109 -8 -151 -16 -234 -44 -56 -19
-116 -42 -133 -51 -19 -9 -76 -19 -144 -24 -61 -5 -139 -16 -172 -25 -36 -9
-144 -20 -270 -26 -115 -5 -245 -16 -288 -24 -43 -8 -108 -18 -145 -21 -37 -4
-110 -18 -162 -32 -94 -25 -102 -26 -630 -33 -294 -5 -560 -11 -590 -14 -82
-8 -403 -25 -680 -36 -135 -5 -285 -17 -335 -25 -174 -30 -549 -34 -2770 -28
-2263 6 -2389 4 -2981 -32 -140 -9 -517 -17 -955 -20 -398 -4 -762 -10 -809
-15 -47 -5 -125 -14 -175 -19 -49 -6 -141 -15 -203 -21 -62 -6 -156 -19 -210
-30 -53 -11 -185 -24 -292 -30 -107 -5 -220 -14 -252 -19 -87 -15 -214 -22
-583 -31 -300 -8 -354 -12 -462 -34 -67 -14 -143 -35 -170 -47 -39 -18 -77
-23 -213 -30 -91 -5 -210 -16 -265 -23 -55 -8 -138 -18 -185 -22 -82 -6 -228
-47 -330 -92 -34 -15 -79 -21 -178 -27 -73 -3 -154 -13 -180 -21 -26 -7 -74
-19 -106 -25 -33 -6 -76 -19 -95 -28 -20 -10 -61 -24 -91 -31 -30 -7 -72 -21
-95 -30 -26 -12 -82 -20 -160 -25 -131 -8 -222 -34 -276 -79 -17 -15 -49 -28
-77 -32 -26 -3 -66 -15 -90 -25 -24 -10 -60 -21 -80 -25 -47 -9 -67 -19 -121
-62 -42 -34 -77 -47 -251 -94 -41 -11 -83 -26 -92 -35 -29 -26 -141 -74 -195
-84 -63 -12 -153 -52 -178 -79 -9 -10 -34 -25 -54 -31 -20 -7 -79 -44 -131
-82 -52 -39 -113 -76 -135 -83 -47 -14 -138 -68 -198 -116 -23 -19 -60 -41
-82 -48 -22 -7 -71 -33 -110 -58 -38 -25 -104 -62 -145 -83 -99 -50 -125 -78
-124 -133 1 -68 12 -94 44 -111 32 -17 68 -12 185 27 33 11 85 26 116 35 39
10 73 30 113 64 32 28 68 49 80 49 32 0 160 63 225 111 30 21 73 44 95 49 23
6 50 16 61 22 132 77 260 137 308 144 55 9 164 52 202 80 18 13 58 27 100 35
39 6 81 17 95 24 14 7 42 15 63 19 21 4 67 24 103 44 114 66 129 72 160 72 17
0 66 11 108 25 42 14 82 25 89 25 20 0 208 60 257 82 29 13 83 24 150 30 189
17 306 42 366 79 17 10 74 32 127 48 80 25 122 31 239 37 79 3 172 13 208 21
36 8 98 20 139 28 40 8 98 24 128 35 39 14 97 23 211 30 86 5 200 16 252 24
52 8 221 20 375 25 171 7 307 16 350 25 39 9 122 20 185 25 63 6 158 20 210
31 83 19 148 22 515 31 231 5 454 14 495 19 132 16 443 30 895 40 242 6 496
15 565 20 319 24 1166 33 3635 39 1436 3 2615 9 2621 13 30 20 231 30 724 38
300 5 579 14 620 19 41 6 185 18 320 26 135 9 274 22 310 30 37 9 168 19 305
25 132 6 276 15 320 21 173 23 241 27 555 34 215 4 347 12 390 21 167 36 203
45 242 65 32 16 71 23 177 30 278 19 512 52 557 78 19 12 40 21 45 21 6 0 41
13 77 29 45 19 92 31 142 35 41 3 101 15 132 26 32 11 68 20 81 20 13 0 45 11
73 24 131 63 189 86 240 95 31 6 79 24 107 40 52 30 108 58 221 109 33 15 85
46 115 70 31 23 67 45 81 49 32 7 96 46 173 105 34 26 81 56 104 67 23 10 46
29 53 40 6 12 42 44 81 72 43 32 77 65 89 89 12 24 35 47 62 62 27 15 57 45
83 83 23 33 55 69 72 80 17 11 40 38 50 60 9 22 45 68 79 101 34 34 71 79 82
100 11 22 40 58 64 80 44 43 71 105 104 247 8 32 25 73 38 90 47 63 66 117 81
225 8 59 21 125 29 147 9 22 15 55 16 73 0 19 11 66 24 105 39 114 43 197 13
287 -14 41 -30 122 -36 180 -11 115 -41 218 -76 266 -13 16 -50 45 -83 62 -76
41 -125 41 -207 1z"/>
<path d="M30445 30551 c-32 -13 -85 -67 -85 -86 0 -10 -8 -32 -19 -49 -10 -17
-22 -51 -25 -76 -4 -25 -17 -63 -30 -85 -20 -34 -24 -59 -29 -160 -3 -77 -11
-136 -22 -165 -10 -27 -20 -95 -25 -168 -7 -107 -11 -128 -33 -160 -35 -51
-87 -152 -87 -168 0 -7 -11 -34 -25 -60 -14 -26 -25 -57 -25 -69 0 -12 -21
-50 -47 -83 -27 -34 -69 -94 -96 -134 -26 -40 -74 -104 -107 -143 -33 -38 -71
-87 -85 -107 -13 -20 -44 -50 -67 -66 -24 -17 -68 -56 -98 -87 -30 -31 -80
-69 -110 -85 -61 -31 -84 -52 -108 -102 -12 -23 -29 -37 -57 -46 -97 -33 -181
-65 -189 -73 -18 -16 15 -37 84 -54 66 -16 72 -16 116 1 26 10 63 32 84 49 23
19 72 42 130 61 75 23 103 38 144 75 28 25 62 50 76 54 14 4 59 39 100 78 41
38 86 77 100 85 42 27 289 284 325 338 18 28 49 65 69 82 39 34 90 112 100
153 3 14 28 54 55 88 38 47 52 73 56 109 4 26 17 63 30 82 12 19 26 46 30 60
4 14 15 36 25 50 48 70 70 143 80 259 6 69 20 150 35 200 34 114 33 164 -5
220 -18 26 -30 57 -30 76 0 40 -28 77 -74 99 -36 17 -126 21 -161 7z"/>
<path d="M30800 28673 c-36 -25 -83 -54 -105 -64 -22 -10 -62 -39 -90 -65 -27
-25 -63 -52 -78 -60 -15 -8 -64 -44 -109 -80 -45 -36 -96 -71 -114 -79 -19 -8
-72 -43 -119 -80 -47 -36 -95 -70 -108 -74 -12 -5 -73 -43 -135 -85 -62 -41
-123 -78 -135 -82 -12 -4 -45 -27 -74 -51 -28 -24 -89 -63 -135 -87 -99 -51
-158 -87 -177 -110 -7 -9 -19 -16 -26 -16 -24 0 -151 -73 -202 -116 -28 -24
-66 -47 -85 -50 -30 -6 -59 -21 -138 -74 -62 -41 -143 -82 -187 -95 -26 -8
-70 -33 -97 -55 -29 -24 -71 -47 -105 -56 -31 -9 -65 -22 -76 -29 -11 -7 -32
-16 -48 -19 -15 -4 -44 -22 -65 -42 -45 -43 -74 -59 -126 -68 -38 -7 -127 -51
-242 -119 -39 -23 -83 -40 -123 -46 -61 -10 -102 -29 -169 -79 -19 -13 -57
-30 -85 -37 -54 -14 -130 -39 -182 -60 -16 -7 -52 -29 -79 -50 -41 -31 -61
-39 -116 -45 -36 -4 -79 -14 -95 -23 -17 -8 -50 -20 -75 -27 -25 -7 -56 -20
-70 -30 -14 -9 -36 -21 -50 -25 -14 -4 -41 -17 -60 -30 -25 -16 -57 -25 -110
-30 -46 -4 -94 -16 -126 -31 -28 -13 -56 -24 -61 -24 -6 0 -22 -9 -36 -20 -14
-11 -57 -27 -97 -35 -39 -8 -81 -20 -92 -26 -12 -6 -55 -16 -96 -21 -43 -5
-86 -17 -101 -27 -14 -10 -37 -22 -51 -26 -14 -4 -38 -17 -53 -28 -20 -13 -61
-23 -131 -32 -57 -7 -112 -17 -123 -23 -11 -6 -51 -16 -89 -22 -68 -12 -156
-40 -266 -86 -41 -18 -88 -27 -175 -33 -115 -9 -252 -36 -343 -67 -25 -9 -63
-20 -85 -26 -22 -6 -80 -21 -128 -34 -53 -15 -132 -27 -195 -30 -60 -4 -149
-17 -202 -30 -52 -13 -104 -24 -116 -24 -12 0 -64 -11 -115 -24 -57 -15 -140
-27 -209 -31 -63 -4 -153 -16 -200 -26 -47 -11 -143 -24 -215 -30 -71 -5 -184
-18 -250 -28 -66 -11 -160 -25 -210 -31 -49 -6 -114 -18 -145 -26 -35 -9 -148
-18 -310 -24 -140 -6 -313 -17 -385 -25 -71 -8 -263 -20 -425 -25 -162 -6
-333 -15 -380 -20 -394 -43 -1544 -70 -2165 -51 -715 22 -952 32 -1150 46
-110 8 -362 19 -560 25 -198 6 -400 15 -450 20 -145 16 -409 30 -563 30 -184
0 -464 17 -572 35 -47 8 -155 19 -240 25 -85 6 -189 15 -230 20 -106 14 -342
28 -575 35 -110 3 -335 13 -500 20 -493 24 -719 21 -1666 -25 -119 -6 -259
-17 -310 -24 -52 -8 -121 -17 -154 -21 -33 -4 -109 -17 -170 -30 -60 -13 -164
-26 -230 -30 -66 -4 -151 -13 -190 -21 -38 -8 -118 -22 -177 -30 -66 -9 -144
-28 -205 -50 -129 -47 -191 -64 -228 -64 -17 0 -56 -7 -86 -16 -30 -10 -90
-25 -134 -34 -80 -18 -233 -68 -283 -94 -15 -7 -47 -16 -72 -20 -64 -10 -218
-63 -246 -85 -13 -10 -41 -22 -61 -26 -20 -4 -54 -15 -75 -26 -20 -10 -44 -19
-53 -19 -14 0 -74 -29 -190 -93 -16 -9 -75 -34 -130 -55 -55 -22 -130 -59
-167 -84 -37 -25 -84 -49 -105 -53 -20 -4 -69 -29 -108 -56 -39 -27 -74 -49
-78 -49 -8 0 -165 -102 -202 -132 -16 -14 -56 -39 -88 -57 -31 -18 -81 -53
-110 -78 -28 -24 -69 -53 -89 -64 -21 -10 -66 -46 -100 -78 -35 -32 -88 -78
-119 -102 -105 -81 -227 -188 -247 -216 -11 -16 -40 -43 -65 -62 -25 -18 -60
-54 -77 -78 -18 -25 -58 -71 -89 -103 -53 -55 -102 -111 -258 -295 -37 -44
-76 -86 -86 -94 -10 -7 -27 -32 -37 -55 -10 -22 -48 -72 -84 -111 -36 -38 -68
-82 -71 -97 -4 -15 -29 -51 -56 -80 -28 -29 -57 -66 -65 -83 -20 -41 -51 -90
-100 -155 -22 -30 -48 -76 -57 -103 -9 -26 -33 -68 -53 -93 -44 -53 -104 -169
-104 -200 0 -12 -15 -40 -32 -61 -18 -21 -48 -70 -67 -108 -18 -39 -39 -81
-46 -95 -7 -14 -16 -41 -20 -60 -4 -19 -14 -42 -21 -51 -32 -35 -77 -138 -90
-202 -7 -37 -22 -79 -34 -94 -11 -14 -20 -32 -20 -40 0 -7 -14 -39 -30 -70
-17 -31 -30 -64 -30 -75 0 -10 -9 -37 -21 -59 -11 -23 -24 -66 -29 -97 -5 -30
-30 -96 -55 -147 -31 -61 -49 -114 -56 -160 -6 -39 -19 -86 -29 -105 -9 -19
-20 -61 -24 -94 -3 -32 -17 -77 -30 -100 -13 -22 -29 -70 -36 -106 -6 -36 -16
-72 -21 -81 -5 -9 -13 -59 -19 -110 -6 -51 -20 -113 -31 -138 -12 -27 -24 -86
-29 -142 -5 -53 -18 -119 -29 -147 -11 -28 -23 -82 -27 -119 -3 -37 -15 -100
-25 -140 -11 -39 -24 -120 -29 -180 -5 -60 -14 -131 -19 -158 -15 -78 8 -181
48 -217 48 -43 81 -37 154 28 20 19 44 34 53 34 9 0 51 35 95 78 118 115 177
167 244 216 33 24 70 58 82 74 12 17 46 42 75 56 29 14 88 57 131 95 43 39 83
71 90 71 7 0 48 31 91 70 43 38 104 81 135 96 31 14 76 43 101 63 25 20 76 52
113 71 44 21 84 51 110 81 33 38 52 50 90 59 59 13 146 61 212 116 28 23 68
47 90 53 35 9 131 63 215 121 14 9 50 24 81 33 31 10 79 35 111 60 32 25 74
48 95 52 20 4 53 15 73 25 19 9 51 21 70 25 36 7 118 53 156 87 14 12 49 23
95 29 70 10 147 41 199 81 78 60 105 71 186 79 90 8 109 15 171 66 32 25 58
37 105 44 35 6 86 19 113 29 28 9 77 20 110 24 49 6 74 16 138 58 l78 51 137
7 c138 7 165 14 252 65 126 75 205 94 388 95 70 0 102 5 130 19 20 10 53 22
72 26 19 4 56 18 81 32 40 21 67 25 206 33 87 5 170 13 184 19 14 5 74 16 134
25 112 17 241 52 323 88 42 19 76 22 322 29 286 9 317 13 560 74 98 24 239 40
465 50 72 4 159 11 194 16 35 5 188 14 340 19 207 7 302 14 377 29 59 12 182
24 304 30 113 6 270 18 350 26 110 12 360 18 1055 25 500 5 982 14 1070 19
376 24 615 32 1205 42 344 5 686 14 760 19 220 14 672 29 1195 40 270 6 519
14 555 20 36 5 160 14 275 19 236 12 408 29 445 43 14 5 117 14 230 19 113 5
237 16 275 24 39 8 175 19 304 25 248 10 280 13 351 36 25 8 100 18 165 23 66
5 133 14 149 20 58 23 120 31 294 41 104 5 216 17 272 29 52 12 106 21 120 21
14 0 46 11 72 25 34 18 74 28 144 35 53 6 124 16 158 24 33 8 108 17 166 21
84 6 113 12 147 31 23 13 48 24 55 24 7 0 38 12 68 26 41 19 82 28 160 34 58
5 134 19 168 30 35 11 74 20 86 20 13 0 44 11 69 24 25 14 63 28 84 32 21 3
63 17 94 30 32 13 89 26 135 29 81 7 156 34 224 80 20 13 58 26 90 30 30 4 82
15 115 25 33 10 76 21 96 25 19 3 64 26 99 52 63 45 107 62 164 63 29 0 51 9
191 76 39 19 75 34 81 34 6 0 23 9 37 20 14 11 52 25 84 31 55 10 113 39 158
79 11 10 40 24 65 30 25 6 59 18 75 25 17 8 46 20 65 28 19 8 56 33 81 55 30
27 63 45 100 55 30 8 77 28 104 46 28 17 68 40 91 51 22 10 48 28 58 39 9 10
33 22 51 25 20 4 56 26 87 54 29 26 89 65 133 87 44 21 103 58 131 81 28 24
63 46 79 50 15 4 65 37 112 75 46 37 104 77 128 89 25 12 66 41 92 64 27 24
83 66 125 95 42 28 80 56 83 61 4 6 37 30 73 55 37 24 90 67 117 95 28 28 67
60 88 72 20 12 37 25 37 28 0 15 84 102 114 117 17 8 54 39 83 67 28 28 71 69
95 92 126 120 488 516 488 533 0 6 23 36 50 67 28 31 50 61 50 65 0 5 34 46
76 91 42 46 83 97 90 115 8 17 18 35 24 38 13 8 130 185 154 233 10 18 32 50
50 70 47 54 92 124 106 167 7 21 28 54 46 75 19 21 45 62 60 91 36 77 53 109
79 149 12 19 36 57 53 84 18 27 32 58 32 69 0 21 52 119 80 152 30 34 78 138
85 182 4 24 25 69 52 109 25 37 54 93 65 123 11 31 30 83 42 116 11 33 40 95
63 137 31 54 46 96 52 142 7 49 20 82 48 127 78 123 102 186 112 286 7 73 13
89 57 160 l48 78 1 103 c0 97 -2 105 -24 123 -33 27 -47 23 -121 -28z"/>
<path d="M13135 28403 c-33 -2 -132 -10 -220 -18 -88 -9 -218 -20 -290 -26
-310 -23 -366 -29 -470 -48 -60 -11 -141 -24 -180 -30 -63 -9 -162 -39 -282
-85 -23 -8 -92 -19 -155 -22 -119 -7 -244 -37 -302 -73 -41 -25 -156 -67 -226
-82 -64 -13 -127 -36 -225 -84 -108 -51 -174 -73 -245 -80 -76 -8 -107 -20
-178 -68 -29 -20 -79 -43 -110 -51 -91 -23 -171 -62 -214 -105 -31 -31 -52
-42 -96 -52 -75 -15 -147 -52 -203 -104 -40 -37 -55 -44 -117 -55 -97 -16
-162 -58 -162 -104 0 -57 25 -69 127 -64 101 5 135 19 205 84 58 54 71 59 187
73 104 13 110 15 170 65 48 40 94 56 164 56 52 0 151 37 201 75 78 58 128 75
247 84 117 9 203 30 309 77 30 13 79 29 109 34 29 6 76 17 105 25 28 9 102 20
165 26 118 10 193 31 297 80 51 24 79 30 160 35 151 8 313 40 483 95 179 59
249 68 514 69 101 0 219 6 275 14 53 8 138 18 187 22 138 10 154 24 155 130 0
61 -3 73 -23 92 -22 21 -32 22 -163 20 -76 -1 -166 -3 -199 -5z"/>
<path d="M29213 24607 c-15 -13 -49 -35 -75 -50 -41 -24 -125 -101 -236 -218
-18 -19 -39 -41 -47 -49 -68 -71 -316 -305 -336 -316 -8 -5 -30 -28 -49 -52
-19 -24 -64 -63 -101 -88 -36 -24 -85 -61 -107 -83 -22 -22 -56 -47 -76 -56
-20 -9 -45 -32 -56 -50 -12 -19 -36 -39 -58 -48 -21 -8 -71 -47 -112 -85 -48
-46 -86 -73 -106 -77 -17 -3 -45 -18 -62 -33 -43 -39 -152 -117 -190 -137 -19
-9 -53 -31 -77 -50 -24 -18 -79 -52 -122 -76 -43 -24 -104 -64 -136 -91 -32
-26 -66 -48 -76 -48 -10 0 -30 -9 -44 -20 -14 -11 -43 -28 -63 -36 -33 -14
-110 -67 -124 -86 -3 -4 -26 -14 -50 -23 -58 -20 -143 -65 -153 -81 -10 -17
-125 -80 -161 -88 -17 -4 -42 -16 -57 -26 -14 -11 -37 -24 -50 -30 -13 -6 -46
-24 -74 -40 -77 -45 -107 -58 -147 -65 -21 -3 -60 -24 -94 -51 -32 -24 -70
-47 -84 -50 -14 -3 -47 -14 -75 -25 -27 -12 -64 -24 -82 -29 -36 -9 -114 -52
-154 -85 -15 -12 -48 -25 -73 -28 -45 -7 -114 -34 -206 -81 -25 -13 -56 -27
-70 -31 -14 -4 -35 -16 -47 -27 -15 -14 -44 -23 -98 -29 -65 -7 -88 -15 -153
-54 -42 -26 -98 -50 -123 -55 -26 -5 -74 -18 -108 -30 -33 -11 -76 -20 -95
-20 -21 0 -46 -9 -63 -23 -82 -66 -115 -80 -211 -89 -52 -5 -107 -15 -122 -23
-16 -8 -53 -20 -82 -26 -29 -6 -73 -22 -98 -35 -25 -13 -51 -24 -58 -24 -8 0
-27 -9 -43 -21 -33 -23 -120 -38 -221 -39 -67 0 -169 -32 -250 -79 -18 -11
-69 -24 -114 -30 -44 -5 -93 -15 -110 -21 -16 -6 -81 -16 -144 -21 -96 -8
-120 -13 -150 -34 -20 -14 -43 -25 -52 -25 -8 0 -27 -9 -41 -20 -33 -26 -115
-40 -236 -40 -63 0 -118 -7 -165 -20 -39 -10 -111 -23 -161 -28 -54 -5 -109
-18 -137 -31 -26 -11 -50 -21 -54 -21 -4 0 -32 -12 -63 -27 -55 -26 -61 -27
-319 -34 -184 -5 -278 -12 -315 -23 -28 -8 -87 -19 -130 -25 -42 -6 -94 -18
-114 -26 -21 -9 -93 -27 -161 -40 -68 -14 -128 -28 -133 -31 -6 -3 -168 -9
-362 -14 -280 -6 -362 -11 -402 -24 -27 -9 -92 -21 -145 -27 -52 -6 -131 -19
-175 -31 -71 -18 -125 -21 -485 -28 -277 -6 -440 -13 -515 -24 -60 -9 -229
-21 -375 -26 -146 -5 -310 -17 -365 -25 -55 -9 -156 -20 -225 -25 -69 -6 -161
-17 -205 -25 -92 -16 -460 -31 -1160 -45 -264 -5 -502 -14 -530 -19 -27 -6
-162 -15 -300 -21 -137 -6 -286 -18 -330 -26 -44 -8 -168 -19 -275 -24 -265
-13 -492 -29 -569 -41 -36 -6 -172 -14 -302 -19 -151 -6 -281 -16 -356 -29
-65 -11 -201 -27 -303 -36 -102 -9 -228 -20 -280 -25 -52 -6 -187 -14 -301
-20 -136 -6 -220 -15 -249 -25 -24 -8 -86 -20 -139 -26 -53 -5 -148 -18 -211
-29 -63 -11 -185 -24 -270 -29 -95 -6 -180 -18 -220 -29 -36 -11 -106 -23
-155 -27 -50 -4 -117 -16 -150 -26 -33 -10 -103 -23 -155 -29 -52 -6 -112 -16
-132 -21 -20 -5 -88 -16 -152 -25 -64 -8 -136 -23 -161 -34 -24 -10 -81 -24
-127 -30 -45 -6 -98 -18 -118 -27 -19 -8 -91 -19 -160 -23 -135 -10 -273 -44
-322 -80 -20 -15 -62 -25 -140 -36 -62 -8 -138 -21 -168 -29 -30 -7 -80 -16
-110 -20 -30 -3 -68 -15 -85 -25 -52 -32 -188 -77 -255 -83 -69 -7 -208 -52
-265 -86 -19 -11 -51 -23 -72 -27 -20 -4 -56 -15 -78 -25 -22 -10 -75 -22
-117 -27 -75 -10 -102 -21 -189 -79 -21 -13 -63 -28 -100 -33 -116 -18 -221
-57 -293 -109 -56 -41 -77 -50 -128 -55 -71 -8 -127 -29 -183 -66 -57 -39
-170 -86 -238 -100 -42 -8 -62 -18 -74 -36 -26 -40 -66 -62 -131 -73 -81 -13
-185 -63 -200 -95 -16 -36 -48 -54 -118 -65 -55 -8 -142 -53 -159 -81 -15 -24
-102 -72 -148 -82 -38 -7 -67 -23 -105 -56 -30 -25 -68 -50 -85 -57 -82 -30
-146 -68 -186 -109 -29 -29 -56 -46 -79 -51 -19 -4 -50 -17 -67 -31 -18 -13
-37 -24 -43 -24 -5 0 -37 -22 -69 -48 -32 -27 -73 -54 -92 -60 -19 -7 -57 -31
-85 -55 -28 -24 -80 -60 -116 -80 -36 -20 -85 -56 -109 -81 -24 -25 -56 -48
-71 -51 -15 -3 -45 -22 -66 -42 -63 -58 -135 -113 -175 -133 -20 -11 -67 -49
-103 -84 -36 -36 -78 -72 -94 -80 -15 -9 -48 -34 -74 -58 -26 -24 -66 -56 -89
-73 -23 -16 -63 -51 -88 -77 -25 -25 -60 -53 -77 -61 -31 -16 -114 -100 -114
-116 0 -5 -17 -20 -37 -32 -60 -37 -250 -222 -418 -406 -43 -49 -117 -125
-162 -170 -46 -44 -83 -86 -83 -93 0 -6 -24 -37 -53 -68 -29 -31 -59 -70 -67
-85 -8 -16 -44 -61 -80 -101 -75 -84 -155 -187 -207 -266 -20 -30 -48 -69 -62
-86 -14 -18 -37 -51 -51 -75 -14 -23 -34 -54 -46 -68 -12 -14 -27 -43 -34 -64
-6 -21 -18 -41 -25 -44 -16 -5 -85 -109 -130 -193 -16 -31 -49 -85 -73 -120
-23 -35 -42 -71 -42 -80 0 -9 -11 -31 -25 -50 -14 -19 -25 -42 -25 -51 0 -10
-10 -30 -23 -46 -32 -39 -83 -141 -92 -183 -4 -19 -29 -71 -56 -115 -27 -44
-49 -86 -49 -93 0 -7 -11 -37 -24 -65 -13 -29 -27 -74 -31 -102 -4 -29 -19
-69 -36 -94 -16 -25 -29 -49 -29 -55 0 -6 -9 -28 -20 -48 -11 -21 -23 -57 -26
-80 -4 -24 -15 -60 -26 -81 -11 -21 -23 -71 -27 -110 -5 -43 -18 -92 -33 -122
-64 -125 -66 -135 -76 -287 -8 -109 -15 -158 -30 -190 -11 -24 -25 -65 -31
-93 -7 -27 -19 -57 -27 -67 -9 -9 -21 -58 -29 -115 -8 -54 -18 -114 -24 -133
-8 -23 -11 -303 -11 -858 0 -691 2 -833 15 -881 8 -31 19 -95 24 -143 7 -61
16 -96 31 -115 11 -16 24 -53 29 -83 5 -30 19 -76 30 -101 16 -36 22 -76 27
-197 5 -108 11 -155 20 -163 8 -6 19 -30 25 -53 6 -22 20 -54 31 -69 13 -18
24 -57 30 -105 5 -43 20 -112 34 -154 13 -43 24 -91 24 -108 0 -17 9 -48 20
-68 11 -20 27 -53 35 -72 8 -19 24 -51 35 -70 13 -22 20 -53 20 -84 0 -28 8
-68 19 -90 10 -23 35 -79 55 -126 20 -47 47 -105 60 -130 13 -25 26 -61 30
-81 3 -20 28 -79 55 -131 27 -53 52 -110 56 -126 3 -17 14 -41 24 -54 10 -13
22 -39 26 -58 4 -19 16 -47 26 -62 11 -14 19 -33 19 -41 0 -8 16 -34 35 -57
19 -23 35 -50 35 -60 0 -31 62 -153 107 -208 23 -29 47 -69 52 -88 5 -20 30
-68 55 -109 25 -40 46 -78 46 -84 0 -5 14 -26 30 -44 17 -19 33 -48 36 -64 3
-17 24 -52 45 -79 21 -27 46 -65 55 -84 9 -19 27 -48 40 -63 13 -16 24 -35 24
-42 0 -8 21 -40 48 -72 53 -66 102 -138 102 -152 0 -6 23 -36 51 -68 28 -32
56 -69 62 -83 22 -50 88 -140 121 -165 19 -14 41 -44 50 -65 9 -22 33 -57 54
-78 21 -21 56 -67 77 -101 22 -35 64 -91 94 -124 30 -34 66 -80 81 -103 15
-24 51 -67 81 -96 30 -30 64 -67 77 -83 32 -41 125 -144 198 -218 33 -34 77
-83 98 -109 20 -26 50 -55 66 -65 16 -9 35 -31 41 -47 7 -17 84 -102 171 -188
87 -86 158 -161 158 -167 0 -6 18 -20 39 -31 22 -11 48 -31 58 -46 28 -39 73
-87 128 -134 28 -24 65 -62 83 -85 21 -28 45 -46 70 -53 27 -8 51 -27 78 -61
21 -27 54 -59 72 -72 18 -12 59 -48 90 -78 115 -113 224 -207 266 -228 24 -12
59 -40 77 -61 19 -22 66 -63 104 -91 39 -29 80 -65 93 -82 13 -16 29 -29 36
-29 17 0 75 -43 145 -106 31 -28 71 -56 89 -62 18 -6 60 -39 93 -72 33 -34 81
-70 106 -81 25 -10 68 -39 96 -63 29 -24 66 -51 84 -60 43 -21 119 -72 168
-111 22 -18 65 -44 95 -58 30 -14 82 -49 115 -77 33 -29 84 -62 113 -75 28
-13 52 -28 52 -32 0 -5 33 -26 73 -48 39 -21 78 -46 85 -56 6 -10 27 -21 45
-24 27 -6 91 -44 228 -136 15 -10 40 -21 55 -25 16 -4 60 -28 99 -54 38 -25
91 -54 117 -64 25 -9 52 -23 58 -31 6 -7 26 -17 43 -21 18 -3 43 -14 57 -23
51 -35 136 -79 165 -85 39 -9 129 -54 181 -92 53 -39 108 -61 166 -69 32 -4
68 -20 113 -50 36 -25 88 -51 115 -59 26 -8 59 -21 72 -30 13 -9 49 -20 78
-26 61 -12 123 -40 160 -75 18 -16 45 -26 95 -33 90 -13 199 -53 234 -86 15
-14 34 -26 42 -26 7 0 28 -8 45 -19 21 -13 56 -20 117 -23 78 -4 90 -7 115
-31 16 -15 36 -27 47 -27 10 0 38 -11 61 -25 24 -14 65 -28 91 -32 26 -3 66
-16 88 -28 31 -18 61 -24 138 -28 79 -3 102 -8 120 -24 12 -11 36 -25 54 -32
17 -7 39 -21 48 -31 13 -14 39 -19 128 -25 62 -4 132 -14 157 -22 25 -8 70
-18 101 -23 31 -4 74 -19 95 -33 22 -14 59 -28 84 -32 25 -4 61 -14 80 -22 24
-10 93 -17 226 -22 158 -6 197 -10 219 -25 55 -36 413 -85 403 -54 -3 7 -24
23 -49 35 -25 12 -69 50 -102 87 -46 52 -65 66 -95 71 -20 4 -63 15 -95 26
-31 10 -69 19 -83 19 -14 0 -35 11 -49 26 -35 37 -112 76 -169 85 -27 5 -65
19 -85 33 -20 13 -46 27 -58 31 -12 3 -55 26 -95 50 -41 24 -93 46 -118 50
-44 7 -126 51 -151 81 -18 22 -107 62 -167 75 -39 8 -61 20 -84 45 -17 19 -35
34 -40 34 -10 0 -114 50 -215 104 -34 18 -84 49 -109 69 -26 21 -52 37 -58 37
-18 0 -129 60 -156 85 -35 30 -92 62 -128 69 -16 4 -40 18 -52 31 -12 13 -48
36 -79 51 -31 15 -69 39 -86 54 -16 15 -43 31 -59 34 -16 4 -50 28 -75 53 -25
25 -57 51 -71 57 -52 23 -126 70 -157 99 -18 17 -53 42 -78 56 -67 39 -322
229 -328 246 -4 8 -35 32 -70 54 -35 22 -75 53 -89 68 -14 15 -39 39 -57 53
-18 14 -46 37 -64 51 -18 14 -42 31 -54 38 -26 13 -86 66 -188 166 -104 101
-196 183 -230 204 -16 10 -52 44 -80 77 -27 32 -133 142 -235 244 -102 102
-205 211 -228 242 -23 31 -57 69 -76 83 -19 15 -40 41 -46 59 -6 18 -36 59
-68 91 -52 53 -87 96 -157 195 -13 19 -38 53 -54 75 -17 22 -42 57 -55 77 -14
20 -41 48 -60 63 -20 15 -37 39 -41 56 -7 30 -54 98 -107 154 -16 17 -40 54
-53 82 -14 29 -40 73 -58 99 -47 67 -86 127 -93 144 -28 64 -49 102 -84 149
-22 30 -43 70 -46 90 -7 36 -60 127 -88 150 -27 22 -63 94 -71 140 -7 41 -49
134 -87 191 -9 14 -20 39 -24 55 -4 17 -18 50 -31 74 -12 24 -23 53 -23 65 0
12 -23 67 -50 124 -27 57 -54 126 -59 155 -10 55 -44 145 -126 332 -17 39 -30
92 -36 149 -5 48 -18 109 -29 133 -11 25 -20 55 -20 67 0 12 -11 60 -24 106
-13 47 -27 108 -31 135 -4 28 -18 83 -31 124 -13 40 -24 94 -24 120 0 25 -9
96 -20 156 -12 61 -27 189 -35 285 -8 96 -23 225 -32 285 -26 158 -26 856 -1
1020 9 61 22 178 28 260 6 83 22 210 36 283 13 73 24 148 24 166 0 18 9 66 20
107 11 41 27 106 35 145 8 38 21 92 30 118 9 26 20 73 25 104 5 31 16 70 24
86 8 17 19 67 26 111 7 51 27 118 55 185 78 188 103 255 115 315 7 36 28 85
51 122 22 35 46 88 54 119 20 76 63 185 84 209 29 34 81 144 81 170 0 40 24
85 79 149 49 58 66 92 90 183 8 30 20 46 46 62 22 13 43 38 59 70 34 71 64
119 108 173 21 26 46 68 55 93 11 34 35 66 84 113 38 36 71 77 74 92 3 14 28
45 56 69 28 24 65 65 82 91 53 79 129 166 305 348 236 245 266 275 391 387 62
55 133 121 159 146 26 25 70 62 97 82 28 19 66 52 85 72 19 20 51 46 70 58 19
12 74 53 122 92 47 38 105 84 128 100 23 17 67 49 98 72 32 24 75 51 97 62 22
10 58 37 80 60 24 26 55 46 80 52 22 6 60 28 85 48 76 62 153 107 195 115 54
10 92 34 114 71 19 33 111 78 183 90 25 4 56 22 93 54 48 43 62 49 114 55 64
7 167 54 222 101 46 39 82 52 164 60 56 6 86 17 150 52 82 46 225 98 299 109
22 4 61 17 86 30 59 31 198 72 283 84 38 6 81 17 98 25 44 23 244 72 324 80
39 3 87 15 108 26 21 10 70 24 108 29 39 6 89 19 112 29 23 11 78 24 122 30
186 24 375 60 411 79 21 11 64 23 94 27 30 4 78 16 105 27 39 15 89 22 230 28
131 7 199 15 250 30 38 11 79 20 90 20 11 0 45 12 75 26 56 26 66 27 390 54
276 22 396 38 436 59 21 11 66 24 99 30 33 5 80 17 105 27 37 14 96 18 345 24
256 6 314 11 395 29 161 37 204 48 245 64 22 8 92 18 155 22 63 4 140 14 170
22 40 10 152 17 405 24 262 7 364 13 405 25 30 8 84 22 120 30 35 8 85 24 110
36 42 19 71 21 390 29 190 4 386 12 435 18 222 27 292 39 323 55 36 19 199 64
277 76 28 5 178 9 335 9 199 1 303 5 345 15 108 24 189 48 235 68 28 13 81 24
145 29 55 5 123 15 150 24 35 11 125 18 297 25 233 9 251 11 309 35 34 15 75
36 90 47 39 29 102 36 309 37 123 1 191 6 230 16 30 9 77 20 104 25 28 6 59
19 70 29 12 10 39 24 61 31 22 7 58 22 79 33 34 16 70 21 230 27 178 6 195 9
256 35 35 15 76 36 90 46 14 10 54 23 90 28 36 5 82 17 104 26 23 10 86 19
160 24 131 9 190 29 233 79 24 29 79 40 191 41 103 1 215 35 274 83 78 64 92
68 214 68 120 0 151 10 258 83 21 15 45 27 53 27 8 0 38 11 66 24 29 14 82 28
122 31 70 8 150 39 190 75 21 20 173 73 240 85 22 4 70 27 107 52 68 45 113
63 156 63 13 0 74 25 136 55 61 30 116 55 120 55 4 0 19 9 33 20 14 11 44 25
67 31 51 13 162 67 177 85 6 8 17 14 24 14 7 0 28 11 47 24 20 13 52 29 72 36
20 6 60 28 89 47 29 20 72 45 97 56 25 11 56 27 70 37 14 9 40 22 58 28 18 6
60 32 93 57 34 25 70 51 82 56 24 11 100 57 168 103 24 17 58 37 74 45 37 19
111 72 181 128 28 23 69 50 90 61 22 11 50 32 64 47 14 14 47 37 73 51 27 13
81 53 120 89 39 36 75 65 80 65 5 0 54 41 108 90 55 50 103 90 108 90 5 0 44
34 87 76 44 41 115 109 159 149 189 176 425 418 451 463 10 17 22 32 26 32 11
0 108 99 127 130 9 15 48 62 86 104 39 43 76 90 84 105 7 14 32 46 55 71 23
25 55 63 71 85 16 22 52 64 82 94 29 29 57 68 62 86 5 18 29 54 55 80 25 27
49 58 52 69 3 12 17 35 30 52 12 17 26 44 30 59 4 15 32 56 63 90 31 34 69 86
85 116 16 30 48 75 72 100 25 27 47 64 54 88 6 23 17 44 25 47 7 3 18 19 24
34 5 16 30 58 55 94 24 35 49 82 55 104 6 21 33 69 61 106 58 77 75 109 101
183 10 30 39 78 64 107 33 39 47 66 55 104 5 31 36 99 79 175 46 82 73 143 80
179 7 38 24 75 54 119 40 58 92 184 112 274 4 17 12 37 20 45 7 8 29 47 49 85
33 65 36 79 42 186 7 110 6 117 -15 138 -27 27 -53 27 -88 -2z"/>
<path d="M15960 16450 c-63 -4 -196 -13 -295 -19 -99 -6 -268 -15 -375 -20
-163 -8 -203 -12 -243 -30 -27 -12 -59 -21 -71 -21 -13 0 -41 -12 -62 -26 -35
-24 -52 -28 -176 -36 -89 -6 -157 -15 -194 -28 -31 -11 -67 -20 -79 -20 -12 0
-44 -11 -71 -25 -27 -14 -65 -30 -84 -36 -19 -7 -45 -20 -57 -29 -14 -11 -51
-20 -100 -25 -74 -7 -97 -14 -228 -75 -33 -16 -78 -31 -99 -35 -22 -4 -50 -15
-63 -25 -12 -10 -48 -21 -78 -25 -47 -5 -65 -14 -115 -56 -46 -38 -72 -52
-112 -59 -90 -17 -206 -65 -237 -99 -30 -32 -86 -61 -118 -61 -21 0 -109 -44
-138 -70 -34 -29 -138 -88 -170 -96 -34 -8 -75 -34 -120 -74 -16 -15 -47 -33
-67 -39 -34 -11 -110 -75 -149 -127 -9 -12 -34 -25 -55 -29 -51 -9 -116 -49
-178 -108 -27 -26 -68 -56 -91 -66 -23 -10 -57 -37 -76 -60 -18 -23 -56 -55
-84 -71 -28 -16 -66 -49 -84 -74 -19 -25 -44 -48 -55 -52 -37 -10 -122 -73
-137 -101 -8 -14 -39 -44 -69 -66 -78 -57 -619 -605 -635 -643 -7 -17 -22 -40
-32 -50 -18 -18 -62 -70 -173 -209 -25 -31 -52 -69 -60 -85 -8 -16 -41 -56
-72 -89 -31 -32 -70 -86 -87 -119 -17 -33 -35 -63 -41 -67 -6 -3 -19 -23 -30
-43 -11 -20 -38 -62 -60 -92 -22 -30 -40 -63 -40 -72 0 -9 -10 -29 -23 -45
-53 -65 -121 -179 -134 -223 -8 -29 -22 -52 -36 -59 -26 -14 -73 -100 -83
-151 -9 -46 -50 -127 -85 -168 -16 -18 -29 -40 -29 -50 0 -9 -9 -32 -20 -50
-11 -18 -20 -45 -20 -61 0 -58 -14 -93 -55 -139 -53 -59 -100 -173 -108 -264
-7 -75 -23 -112 -74 -175 -29 -37 -35 -53 -43 -124 -5 -47 -17 -93 -27 -108
-9 -14 -20 -55 -24 -89 -4 -41 -14 -74 -28 -93 -12 -16 -26 -51 -31 -78 -5
-28 -16 -67 -25 -88 -10 -24 -19 -89 -24 -174 -6 -111 -12 -143 -29 -170 -11
-19 -26 -54 -32 -79 -7 -24 -20 -54 -30 -67 -13 -16 -19 -50 -25 -125 -3 -57
-13 -139 -21 -183 -20 -117 -20 -1603 0 -1720 8 -44 17 -135 21 -203 6 -93 11
-127 25 -145 9 -12 25 -49 35 -82 9 -33 24 -68 32 -77 17 -19 32 -129 32 -243
1 -46 6 -78 16 -92 8 -12 21 -48 29 -80 7 -33 21 -71 30 -85 9 -14 21 -53 26
-86 6 -33 19 -79 29 -103 11 -24 23 -69 26 -99 4 -30 15 -73 25 -95 10 -22 23
-51 29 -65 6 -14 20 -37 31 -51 14 -16 26 -54 34 -110 16 -99 44 -169 87 -211
47 -47 57 -68 73 -144 18 -82 55 -192 73 -214 58 -68 73 -92 84 -136 15 -61
47 -131 77 -170 43 -55 82 -119 82 -136 0 -9 22 -43 50 -75 27 -32 55 -74 61
-93 6 -19 17 -42 24 -50 6 -8 28 -45 48 -81 20 -37 48 -74 62 -83 13 -9 28
-29 31 -44 7 -29 48 -90 75 -109 9 -7 36 -44 60 -84 39 -64 62 -93 158 -194
16 -16 31 -41 34 -55 7 -26 66 -94 217 -251 110 -113 98 -101 153 -150 27 -24
54 -57 62 -75 7 -17 25 -40 40 -50 39 -27 75 -64 110 -114 17 -24 45 -49 65
-57 19 -8 58 -36 85 -63 242 -236 409 -380 441 -380 6 0 33 -24 60 -54 30 -32
74 -66 111 -84 34 -18 68 -40 75 -49 16 -21 90 -73 104 -73 6 0 39 -23 75 -51
35 -28 75 -56 89 -62 14 -6 38 -22 53 -34 16 -13 39 -23 51 -23 25 0 115 -56
123 -76 2 -7 25 -22 51 -34 26 -11 59 -28 75 -36 15 -8 38 -20 51 -27 13 -6
48 -29 77 -49 30 -20 75 -42 102 -48 26 -5 56 -19 66 -29 24 -24 88 -38 110
-24 9 5 21 27 26 49 6 21 18 50 27 64 10 14 22 49 28 78 10 45 19 58 63 95 28
23 70 60 93 82 22 22 56 54 75 71 19 17 96 95 172 173 76 78 148 147 161 153
13 5 28 18 32 28 5 10 27 33 49 52 22 18 72 68 110 110 39 43 99 106 134 140
35 35 166 164 291 288 125 124 265 262 311 306 46 45 121 120 167 168 45 48
94 91 107 96 14 5 30 20 36 32 6 13 30 39 55 58 24 19 47 43 50 53 3 9 9 17
13 17 8 0 91 81 193 186 25 27 81 81 124 119 42 39 84 79 93 89 9 11 36 38 60
60 24 23 49 47 55 55 21 27 103 107 205 201 57 52 111 103 120 113 9 11 43 47
76 81 33 35 82 86 109 115 27 29 60 60 75 69 14 9 39 33 56 52 16 19 48 51 69
70 43 38 90 86 187 192 34 38 65 68 70 68 5 0 128 119 273 265 146 146 269
265 274 265 6 0 19 15 29 33 19 31 71 62 171 103 46 19 87 12 165 -27 20 -11
73 -26 118 -34 66 -11 93 -22 147 -58 38 -25 84 -47 106 -50 21 -4 55 -17 75
-31 22 -15 58 -27 94 -31 32 -4 74 -16 92 -28 19 -12 51 -33 72 -46 21 -13 61
-30 88 -37 131 -34 191 -55 206 -74 27 -32 147 -70 223 -70 77 0 95 7 151 61
22 21 77 73 122 116 45 43 92 88 105 101 12 12 56 55 97 95 41 40 81 83 90 97
24 38 230 230 247 230 8 0 14 4 14 9 0 9 29 41 81 87 18 17 70 71 114 119 44
48 95 94 113 102 18 7 36 21 39 30 9 22 101 61 175 73 35 5 118 10 184 10 108
0 124 2 148 21 15 12 47 27 71 35 54 16 110 59 125 95 7 16 32 38 61 53 31 17
49 34 49 45 0 10 11 34 24 53 17 25 26 57 31 107 5 50 14 82 31 107 21 30 24
46 24 125 0 75 -4 97 -24 137 -14 28 -26 74 -30 115 -8 82 -52 169 -100 198
-17 10 -45 37 -62 61 -20 28 -44 48 -71 58 -23 8 -49 22 -60 31 -35 30 -128
77 -168 84 -22 4 -54 15 -71 26 -41 25 -122 25 -172 0 -20 -10 -55 -22 -76
-25 -47 -9 -149 -59 -189 -92 -16 -13 -36 -24 -45 -24 -36 0 -164 -142 -186
-206 -8 -25 -36 -69 -61 -98 -59 -69 -67 -118 -63 -356 l3 -175 -26 -35 c-15
-19 -30 -45 -33 -57 -4 -12 -23 -32 -42 -43 -19 -12 -56 -50 -82 -85 -26 -35
-84 -92 -127 -125 -44 -34 -116 -99 -160 -145 -74 -77 -95 -101 -185 -207 -21
-25 -43 -40 -67 -44 -19 -4 -45 -18 -58 -32 -22 -23 -32 -26 -94 -26 -58 0
-75 4 -107 26 -22 15 -52 30 -69 34 -16 4 -50 18 -74 31 -24 12 -49 23 -56 23
-7 0 -24 9 -37 20 -14 10 -55 24 -93 30 -59 9 -75 17 -122 57 -43 37 -66 49
-116 59 -139 27 -222 54 -242 77 -40 46 -96 72 -186 83 -63 8 -96 17 -120 35
-29 21 -45 24 -114 24 -44 -1 -91 -4 -105 -8 -14 -3 -53 -34 -85 -69 -33 -34
-80 -80 -104 -102 -24 -23 -51 -50 -60 -61 -9 -11 -79 -83 -156 -160 -77 -78
-154 -157 -171 -176 -17 -18 -50 -47 -72 -63 -23 -16 -44 -37 -47 -46 -3 -9
-71 -79 -151 -155 -81 -77 -151 -146 -158 -153 -25 -29 -316 -320 -362 -363
-27 -25 -67 -65 -90 -90 -23 -24 -59 -60 -80 -79 -21 -20 -55 -54 -75 -75 -20
-22 -75 -78 -122 -125 l-87 -84 -63 -4 c-77 -5 -133 15 -147 53 -6 14 -13 59
-17 98 -3 40 -14 88 -25 107 -10 19 -18 40 -18 47 0 6 -11 25 -25 41 -14 17
-28 45 -32 64 -3 18 -17 54 -29 80 -13 26 -24 60 -24 75 0 15 -7 41 -15 57
-19 36 -19 54 0 99 8 20 15 48 15 63 0 20 19 46 75 103 41 42 82 86 90 98 9
12 32 32 53 43 33 19 77 69 109 126 6 11 30 29 52 39 22 10 51 34 64 54 33 48
92 108 115 115 11 4 28 22 38 42 10 19 49 57 86 85 41 30 74 64 85 87 14 29
28 40 63 52 25 8 65 30 90 48 48 36 66 37 192 16 25 -4 57 1 100 15 35 11 95
23 133 27 43 4 80 13 96 24 15 10 42 25 60 33 39 16 185 159 195 191 4 11 23
41 44 66 20 25 42 54 48 65 6 12 14 119 18 240 l7 219 34 48 c19 26 38 48 42
48 4 0 31 31 59 69 29 39 65 75 82 83 18 7 42 32 56 56 14 24 36 48 50 54 13
6 24 15 24 20 0 4 14 17 31 27 18 11 41 37 53 58 19 34 44 53 124 95 12 6 25
23 28 37 10 51 29 75 67 86 27 7 48 24 72 55 63 84 87 110 100 110 8 0 33 25
57 55 23 30 46 55 50 55 15 0 98 89 98 105 0 9 23 40 50 69 28 30 50 62 50 74
0 12 -21 52 -46 89 -42 61 -48 76 -56 148 -5 50 -15 89 -27 105 -10 14 -22 37
-26 50 -4 14 -18 37 -30 52 -12 14 -25 45 -29 69 -4 23 -15 54 -25 68 -11 15
-22 48 -26 74 -4 26 -15 57 -24 70 -10 12 -23 36 -30 54 -7 17 -21 39 -31 48
-13 11 -21 38 -26 82 -9 89 -51 178 -107 229 -40 37 -46 47 -52 98 -4 31 -5
97 -3 146 5 103 18 124 99 165 30 16 50 34 59 54 6 16 24 38 39 47 53 35 118
97 135 129 10 19 32 39 48 46 17 7 43 29 58 50 31 43 101 105 129 114 10 3 24
19 31 35 7 17 38 51 68 78 83 70 102 90 102 106 0 17 56 67 108 98 21 12 47
38 58 57 10 20 35 45 55 56 20 11 54 41 75 67 22 25 57 61 80 80 23 18 50 49
60 68 10 19 47 57 82 85 34 27 70 66 80 85 9 19 31 42 49 50 38 18 95 76 118
119 9 19 31 39 50 47 19 7 46 32 62 56 15 23 48 57 73 74 25 18 53 42 64 52
28 30 97 99 134 135 19 18 44 49 58 70 20 31 30 37 59 37 65 0 172 -62 273
-159 58 -55 109 -95 135 -105 33 -12 49 -28 75 -71 25 -42 44 -61 80 -78 30
-14 53 -35 66 -58 12 -20 51 -63 89 -95 40 -34 67 -66 67 -77 0 -11 23 -40 51
-66 28 -25 57 -57 65 -71 7 -14 41 -54 76 -90 34 -36 72 -79 83 -96 55 -86 78
-116 120 -159 25 -26 45 -56 45 -67 0 -21 28 -61 91 -128 43 -46 78 -111 79
-143 0 -20 32 -65 97 -135 38 -42 43 -52 43 -95 0 -42 -5 -54 -34 -83 -39 -39
-58 -42 -93 -15 -13 11 -48 25 -78 31 -30 6 -65 20 -79 31 -22 17 -43 20 -153
22 l-128 2 -54 -45 c-52 -44 -97 -88 -299 -295 -53 -55 -161 -163 -240 -239
-78 -77 -144 -148 -148 -158 -3 -10 -9 -18 -14 -18 -5 0 -33 -24 -62 -52 -176
-172 -236 -226 -258 -233 -14 -4 -33 -15 -44 -24 -15 -13 -52 -17 -215 -21
l-196 -5 -49 -47 c-31 -30 -62 -50 -83 -54 -55 -10 -150 -81 -163 -120 -7 -19
-15 -34 -20 -34 -15 0 -81 -75 -87 -100 -3 -14 -13 -38 -23 -55 -10 -16 -21
-63 -24 -102 -4 -40 -13 -92 -20 -115 -10 -36 -9 -60 6 -148 10 -58 18 -120
18 -138 0 -53 54 -151 125 -227 37 -39 73 -82 81 -97 19 -37 102 -74 191 -86
48 -7 83 -18 109 -36 35 -24 47 -26 142 -26 94 0 107 2 157 29 37 20 76 31
126 36 76 8 82 11 138 85 13 17 48 49 77 71 30 22 54 46 54 54 0 8 11 27 25
42 59 66 87 122 95 191 4 38 12 78 19 90 17 33 16 160 -3 215 -21 62 -20 73 4
97 12 12 25 41 29 66 9 46 52 104 78 104 17 0 346 332 381 384 15 23 42 48 59
56 17 8 63 47 102 87 61 60 82 75 137 93 48 16 78 21 108 16 22 -4 89 -11 149
-15 112 -9 146 -22 210 -87 15 -14 44 -26 85 -34 34 -6 81 -20 104 -30 24 -11
58 -20 76 -20 39 0 70 -14 95 -44 25 -29 47 -84 47 -114 0 -33 36 -107 78
-160 34 -42 35 -47 43 -170 5 -70 16 -174 24 -232 8 -58 18 -150 21 -205 5
-66 13 -112 25 -135 10 -19 23 -66 28 -105 5 -38 20 -97 32 -130 21 -57 22
-75 22 -350 0 -285 0 -291 -25 -365 -14 -41 -29 -108 -33 -149 -3 -41 -15 -97
-25 -125 -13 -34 -22 -105 -30 -216 -6 -90 -14 -168 -17 -173 -3 -5 -9 -67
-13 -137 -6 -115 -10 -132 -35 -176 -60 -103 -74 -139 -80 -210 -7 -83 -15
-117 -43 -170 -11 -22 -25 -61 -31 -88 -7 -27 -20 -60 -31 -74 -11 -13 -20
-33 -20 -44 0 -11 -5 -29 -12 -41 -6 -12 -15 -35 -19 -52 -16 -64 -49 -136
-78 -174 -18 -23 -46 -83 -66 -143 -19 -56 -35 -104 -35 -105 0 -1 -20 -25
-45 -54 -33 -39 -46 -63 -51 -98 -8 -54 -17 -75 -54 -118 -16 -17 -33 -47 -40
-67 -6 -20 -15 -36 -20 -36 -4 0 -24 -33 -45 -72 -81 -160 -98 -188 -115 -193
-17 -5 -50 -70 -50 -98 0 -8 -16 -32 -35 -54 -19 -23 -44 -63 -56 -90 -11 -26
-26 -55 -34 -63 -7 -8 -16 -26 -20 -40 -10 -34 -70 -134 -117 -194 -21 -27
-38 -56 -38 -65 0 -10 -20 -46 -45 -82 -47 -67 -57 -87 -99 -181 -13 -31 -36
-67 -50 -79 -14 -12 -26 -27 -26 -33 0 -6 -20 -49 -45 -96 -24 -47 -53 -103
-63 -125 -11 -22 -37 -60 -59 -85 -22 -25 -50 -74 -63 -109 -13 -35 -40 -83
-61 -107 -20 -24 -43 -60 -49 -81 -13 -40 -58 -124 -71 -133 -5 -3 -16 -24
-25 -45 -9 -22 -24 -49 -34 -60 -10 -11 -23 -39 -29 -61 -6 -23 -18 -47 -26
-54 -20 -17 -115 -174 -115 -191 0 -8 -7 -23 -15 -33 -8 -11 -15 -32 -15 -47
0 -21 -12 -38 -44 -65 -47 -39 -60 -63 -71 -129 -4 -22 -12 -49 -19 -60 -7
-11 -20 -41 -28 -67 -9 -25 -26 -56 -37 -67 -12 -12 -21 -34 -21 -50 0 -16 -6
-34 -14 -40 -19 -16 -36 -88 -36 -150 0 -48 2 -51 25 -51 16 0 25 -6 25 -15 0
-10 -10 -15 -30 -15 -23 0 -30 -5 -30 -19 0 -56 34 -67 82 -26 16 14 42 25 58
25 32 0 91 36 121 73 11 15 34 28 56 32 21 4 45 12 53 20 8 7 33 18 55 25 22
7 59 32 82 56 27 26 62 49 92 59 27 9 55 23 62 31 7 8 26 22 43 30 40 18 118
65 137 82 24 21 89 62 99 62 5 0 17 12 27 26 9 15 33 34 53 44 65 30 95 53
135 101 28 34 50 49 73 54 33 6 55 24 187 152 34 33 68 56 93 63 32 8 44 18
59 48 12 26 31 43 61 57 23 11 42 24 42 30 0 15 69 85 84 85 8 0 19 12 25 27
7 16 30 39 52 53 23 14 47 37 55 51 7 15 28 38 46 52 18 15 39 33 47 40 37 39
62 69 71 87 6 11 16 20 22 20 12 0 78 67 78 80 0 4 11 15 24 24 14 9 32 30 41
48 8 18 31 44 51 57 19 14 42 38 51 55 9 17 24 40 34 51 104 113 129 142 129
158 0 10 13 32 30 50 108 118 131 147 136 175 3 17 18 42 33 55 62 59 85 91
125 174 9 18 24 37 34 42 20 10 82 124 82 150 0 9 25 49 55 90 30 41 55 78 55
84 0 5 11 22 25 39 14 16 25 42 26 56 1 40 9 55 62 112 26 28 47 59 47 69 0
10 11 34 24 53 13 20 27 58 31 86 4 35 14 57 32 74 33 31 69 103 78 158 4 25
18 63 30 85 13 22 27 57 30 77 4 20 15 44 26 54 10 9 23 33 30 53 6 20 19 45
29 56 13 14 19 44 23 105 4 71 9 92 31 124 14 21 26 44 26 51 0 6 11 22 24 34
15 14 27 40 31 65 4 22 14 52 23 66 13 19 18 61 22 173 6 128 9 151 27 176 34
45 80 180 91 264 6 51 16 85 28 99 18 19 19 57 26 747 3 399 4 962 1 1251 -6
518 -6 526 -29 599 -13 40 -24 86 -24 102 0 15 -23 76 -51 135 l-51 108 -9
148 c-7 113 -13 158 -28 186 -10 20 -22 51 -25 69 -4 17 -14 37 -22 44 -34 28
-76 143 -84 227 -5 52 -15 93 -26 110 -37 55 -84 157 -84 181 0 14 -11 46 -25
70 -14 24 -28 61 -31 82 -4 24 -23 60 -50 95 -42 53 -64 105 -64 149 0 30 -46
112 -100 176 -34 41 -50 70 -55 101 -9 55 -24 82 -72 138 -53 60 -93 131 -93
163 0 19 -17 46 -55 87 -30 33 -55 67 -55 76 0 24 -49 100 -99 152 -24 25 -50
62 -58 81 -8 19 -33 56 -55 81 -22 25 -49 62 -59 83 -11 20 -23 37 -28 37 -5
0 -18 18 -28 39 -22 44 -78 111 -198 236 -44 46 -96 106 -115 134 -19 28 -47
55 -62 62 -34 14 -54 37 -62 71 -3 15 -16 33 -29 39 -36 19 -111 90 -128 122
-9 17 -35 39 -60 51 -28 13 -49 32 -58 51 -20 45 -61 84 -108 105 -29 13 -44
27 -49 44 -3 15 -31 44 -71 73 -36 26 -88 71 -117 99 -28 28 -71 65 -96 81
-25 17 -54 41 -65 53 -28 31 -99 79 -138 92 -17 6 -66 42 -107 80 -46 43 -88
72 -111 78 -24 7 -49 25 -73 54 -39 48 -97 85 -176 111 -33 11 -60 28 -78 51
-17 22 -47 42 -82 55 -30 11 -64 28 -75 38 -28 24 -103 71 -113 71 -5 0 -25
11 -45 24 -19 13 -60 29 -89 35 -43 9 -63 21 -97 55 -43 43 -110 72 -250 107
-24 6 -53 21 -65 34 -29 31 -113 75 -143 75 -14 0 -55 14 -93 30 -38 17 -79
30 -93 30 -13 0 -40 11 -60 24 -19 13 -46 27 -58 31 -13 4 -37 15 -54 25 -17
10 -63 20 -105 24 -45 4 -94 16 -125 30 -27 13 -61 27 -75 31 -14 4 -41 18
-60 31 -19 13 -47 24 -61 24 -15 0 -46 7 -70 16 -24 8 -109 21 -189 28 -123
11 -152 17 -194 39 -27 15 -56 27 -65 27 -9 0 -50 11 -91 24 -63 20 -105 24
-265 30 -104 3 -253 11 -330 16 -415 30 -805 37 -1075 20z m136 -1691 c32 -19
60 -42 62 -51 2 -10 -14 -25 -41 -41 -25 -15 -57 -43 -73 -63 -16 -19 -42 -48
-58 -62 -16 -15 -58 -55 -95 -90 -36 -35 -79 -75 -94 -90 -16 -15 -40 -44 -54
-65 -13 -21 -38 -46 -55 -55 -36 -20 -108 -86 -108 -100 0 -5 -19 -26 -42 -46
-24 -20 -47 -42 -53 -47 -5 -6 -52 -53 -102 -104 -51 -51 -93 -98 -93 -103 0
-6 -21 -25 -47 -42 -27 -18 -59 -45 -73 -62 -28 -33 -57 -62 -192 -194 -51
-50 -105 -106 -119 -125 -15 -19 -51 -54 -82 -78 -31 -25 -63 -61 -72 -81 -9
-20 -31 -45 -48 -55 -18 -10 -77 -62 -132 -116 -295 -291 -399 -397 -424 -434
-14 -22 -43 -48 -62 -57 -20 -9 -49 -33 -65 -53 -34 -43 -44 -53 -284 -290
-102 -101 -192 -191 -200 -200 -21 -22 -665 -657 -715 -704 -22 -21 -81 -80
-132 -132 -51 -52 -100 -101 -110 -110 -10 -9 -46 -45 -79 -80 -178 -185 -333
-327 -366 -334 -18 -4 -52 -16 -76 -26 -38 -17 -49 -18 -108 -8 -48 8 -76 8
-103 1 -20 -6 -85 -16 -146 -22 -114 -12 -128 -18 -177 -77 -10 -12 -33 -26
-51 -32 -39 -14 -90 -65 -104 -107 -11 -31 -19 -42 -88 -117 -70 -75 -67 -63
-67 -331 -1 -279 -1 -278 92 -385 54 -61 93 -114 111 -148 8 -14 25 -25 48
-29 23 -5 54 -24 88 -57 l53 -50 133 -8 c72 -4 197 -5 276 -2 l143 6 65 54
c36 29 71 53 78 53 20 0 107 76 130 112 11 18 39 52 62 75 36 36 42 48 47 100
3 32 16 87 28 123 18 54 22 89 23 205 1 109 5 149 18 179 11 24 60 80 125 142
59 57 113 109 119 116 14 14 146 147 161 163 6 6 22 21 35 35 19 20 155 148
189 179 4 3 46 50 94 103 48 54 95 100 105 103 11 4 26 19 34 34 18 36 243
227 289 246 20 8 47 15 61 15 31 0 82 -25 104 -50 23 -27 137 -67 211 -75 75
-8 87 -14 157 -70 34 -28 66 -44 93 -49 23 -4 58 -15 78 -25 21 -10 63 -21 96
-25 37 -4 69 -15 87 -29 16 -12 43 -32 59 -45 32 -25 80 -42 120 -42 14 0 43
-10 65 -22 32 -17 57 -22 126 -22 75 -1 92 3 141 27 37 19 65 42 82 68 14 21
38 46 53 56 38 25 70 61 96 108 12 22 36 47 52 55 61 31 95 64 107 102 9 32
20 42 64 63 29 14 61 37 71 52 10 14 38 45 62 67 25 23 63 61 85 85 43 47 47
50 114 107 23 20 42 43 42 52 0 19 49 72 66 72 19 0 64 40 88 79 15 23 43 46
77 64 51 26 63 27 249 33 210 7 251 17 293 70 11 14 38 29 64 36 63 15 168
118 217 211 20 38 36 74 36 81 0 7 11 30 25 51 18 26 29 60 35 112 5 41 12 79
16 84 3 6 0 58 -6 117 -10 84 -20 123 -47 182 -18 41 -38 82 -44 90 -5 8 -20
38 -34 67 -14 31 -33 54 -46 58 -12 4 -59 45 -105 91 -60 61 -90 84 -108 84
-14 0 -49 10 -78 22 -48 20 -70 22 -238 22 -114 0 -198 -4 -220 -11 -147 -49
-145 -48 -260 -160 -116 -113 -150 -165 -164 -253 -4 -24 -21 -68 -37 -98 -28
-48 -31 -62 -32 -145 -1 -51 2 -120 7 -155 9 -61 8 -64 -34 -147 -37 -74 -51
-90 -111 -135 -37 -28 -70 -59 -74 -68 -3 -10 -26 -34 -51 -53 -26 -19 -57
-51 -70 -71 -13 -20 -50 -59 -82 -85 -49 -42 -124 -115 -264 -261 -18 -18 -48
-36 -72 -42 -23 -6 -58 -18 -79 -27 -36 -16 -40 -16 -83 5 -24 12 -59 22 -77
22 -17 1 -48 7 -67 14 -19 8 -60 23 -90 35 -30 12 -62 29 -70 39 -22 27 -69
55 -120 72 -44 15 -45 16 -48 62 -3 39 1 50 19 65 12 10 112 110 223 222 111
112 214 215 230 230 54 49 491 479 521 512 36 40 1062 1055 1167 1154 17 17
88 89 158 160 69 72 166 168 216 214 49 46 103 101 120 122 55 67 181 168 220
175 62 12 182 -5 233 -32 25 -13 52 -24 59 -24 7 0 32 -10 55 -22 37 -20 63
-23 207 -28 159 -6 167 -7 226 -37 33 -17 66 -39 74 -48 28 -34 136 -75 197
-75 86 -1 124 -13 200 -63 38 -25 82 -49 98 -53 17 -3 44 -15 60 -25 17 -10
54 -21 84 -25 29 -4 60 -14 69 -23 37 -37 94 -72 167 -104 77 -35 115 -59 115
-76 0 -4 -13 -25 -30 -46 -16 -21 -30 -42 -30 -48 0 -12 -47 -71 -84 -105 -35
-32 -57 -55 -156 -162 -41 -45 -104 -109 -140 -143 -35 -34 -92 -89 -127 -122
-76 -72 -73 -70 -167 -170 -125 -134 -159 -169 -201 -202 -23 -17 -46 -42 -53
-55 -7 -12 -34 -39 -59 -58 -26 -19 -58 -51 -72 -70 -14 -20 -82 -89 -151
-153 -69 -64 -129 -122 -135 -127 -58 -62 -109 -110 -116 -110 -4 0 -23 -21
-40 -47 -18 -27 -37 -51 -43 -55 -6 -3 -27 -21 -47 -40 -20 -18 -66 -60 -104
-93 -37 -33 -94 -86 -125 -117 -32 -31 -72 -64 -89 -72 -21 -11 -33 -28 -40
-54 -11 -39 -67 -94 -129 -126 -18 -9 -37 -28 -42 -42 -9 -23 -194 -220 -318
-338 -30 -28 -91 -88 -136 -133 -45 -46 -87 -83 -93 -83 -6 0 -22 -17 -34 -37
-23 -37 -214 -233 -227 -233 -8 0 -44 -36 -102 -102 -23 -26 -50 -50 -61 -53
-10 -4 -32 -26 -49 -50 -16 -24 -58 -70 -92 -102 -35 -32 -76 -72 -93 -89 -16
-16 -42 -37 -56 -46 -15 -9 -48 -43 -75 -76 -27 -33 -60 -67 -74 -75 -14 -8
-36 -33 -49 -54 -14 -21 -54 -63 -89 -93 -36 -30 -75 -66 -86 -78 -12 -13 -37
-38 -56 -55 -45 -41 -72 -69 -200 -205 -66 -70 -117 -115 -138 -123 -22 -7
-39 -23 -53 -50 -11 -22 -46 -60 -79 -86 -38 -29 -63 -57 -70 -79 -6 -18 -23
-40 -38 -50 -15 -10 -58 -50 -97 -90 -38 -40 -85 -79 -102 -88 -18 -9 -39 -29
-48 -45 -8 -16 -43 -54 -79 -85 -35 -31 -69 -70 -76 -86 -7 -17 -16 -30 -20
-30 -5 0 -50 -39 -100 -87 -51 -49 -105 -96 -120 -106 -15 -9 -40 -36 -55 -58
-16 -22 -44 -54 -64 -71 -20 -17 -49 -50 -65 -72 -16 -23 -34 -44 -40 -48 -21
-12 -89 -73 -135 -119 -50 -50 -150 -109 -186 -109 -13 0 -37 -6 -54 -13 -27
-11 -41 -11 -92 2 -57 15 -62 15 -122 -6 -34 -12 -90 -29 -125 -37 -34 -9 -72
-22 -85 -30 -12 -8 -37 -17 -56 -21 -33 -7 -103 -65 -170 -140 -14 -16 -51
-55 -82 -86 -54 -55 -60 -57 -120 -64 -35 -4 -363 -5 -729 -3 -752 3 -709 -1
-730 80 -6 24 -20 67 -30 96 -11 30 -20 73 -20 96 0 23 -11 80 -25 126 -14 46
-25 105 -25 131 0 50 -10 137 -36 304 -22 142 -16 786 9 925 10 52 20 145 23
205 4 70 14 137 29 185 12 41 25 98 29 127 4 29 14 71 22 95 8 24 21 102 28
173 14 130 25 166 91 285 29 53 75 226 75 283 0 66 8 84 62 146 21 24 42 62
48 85 6 23 17 53 25 68 7 15 19 55 26 87 6 33 19 68 28 78 38 43 75 107 87
153 11 44 57 117 132 210 12 15 25 43 28 62 10 47 27 78 68 117 20 19 36 40
36 47 0 6 14 28 30 49 17 21 30 43 30 50 0 7 19 37 43 66 65 80 98 130 117
175 10 23 32 51 49 63 17 12 45 42 61 66 17 24 57 71 89 104 32 33 66 78 75
98 10 21 36 53 59 71 23 18 60 54 82 81 22 26 59 63 83 82 23 19 44 41 47 49
3 9 30 37 60 62 30 25 71 65 89 87 19 23 56 57 83 77 26 20 68 57 92 81 24 25
58 51 76 59 18 7 51 34 73 59 22 25 57 52 78 61 22 9 71 46 109 84 47 45 81
70 105 75 35 8 180 109 180 126 0 12 55 36 100 44 19 3 60 23 90 45 106 77
135 94 181 106 26 7 74 33 107 59 46 34 75 48 114 55 47 7 136 41 192 72 71
38 93 52 107 64 17 16 103 34 159 34 38 0 182 59 195 79 3 6 21 18 38 27 18 8
46 22 62 31 23 13 64 18 175 20 153 4 196 14 338 79 36 17 79 26 140 30 48 3
108 12 133 20 57 18 240 33 370 30 90 -1 99 -4 155 -37z m392 -1798 c32 -13
75 -44 120 -88 l70 -68 8 -80 c9 -104 -6 -195 -41 -240 -17 -23 -52 -47 -103
-71 -73 -33 -82 -35 -163 -32 -63 2 -92 8 -105 19 -11 9 -45 24 -76 33 -81 23
-96 48 -104 173 -4 55 -4 125 0 157 7 53 10 58 49 82 23 15 62 46 87 69 68 66
164 83 258 46z m565 -1905 c52 -17 69 -37 78 -88 11 -65 47 -159 68 -183 11
-11 26 -38 34 -60 9 -22 26 -69 40 -105 30 -83 71 -163 91 -179 36 -30 21 -52
-172 -250 -51 -53 -105 -107 -120 -121 -14 -14 -34 -34 -43 -45 -32 -36 -145
-150 -170 -170 -13 -12 -41 -39 -61 -60 -20 -22 -53 -53 -73 -69 -20 -16 -45
-46 -55 -67 -16 -31 -30 -41 -77 -59 -32 -11 -72 -28 -89 -37 -24 -13 -49 -15
-117 -11 -127 8 -233 -5 -287 -36 -25 -14 -52 -26 -61 -26 -9 0 -24 -9 -34
-20 -10 -11 -40 -27 -66 -34 -74 -22 -113 -60 -206 -198 l-84 -128 -5 -207
c-4 -149 -10 -220 -20 -250 -15 -41 -114 -151 -208 -231 -22 -19 -59 -61 -83
-95 -24 -34 -60 -71 -79 -83 -35 -21 -188 -175 -233 -234 -13 -18 -39 -39 -57
-48 -18 -8 -35 -21 -38 -27 -11 -29 -90 -125 -108 -131 -11 -3 -67 -54 -124
-112 -58 -59 -137 -138 -175 -177 l-69 -70 -11 -81 c-8 -58 -8 -93 0 -120 6
-22 11 -52 11 -69 0 -16 9 -43 20 -60 11 -16 20 -37 20 -46 0 -9 9 -28 20 -42
12 -14 30 -52 40 -83 11 -32 26 -65 34 -73 17 -19 36 -85 36 -123 0 -15 14
-47 30 -70 17 -24 38 -54 47 -67 16 -22 40 -101 68 -222 9 -39 27 -74 60 -116
27 -36 51 -79 56 -103 5 -24 18 -62 29 -85 11 -24 22 -67 26 -97 6 -48 4 -57
-19 -84 -14 -17 -33 -49 -42 -72 -9 -23 -24 -44 -33 -47 -10 -3 -51 -37 -92
-76 -41 -39 -102 -92 -135 -117 -33 -26 -62 -51 -64 -57 -5 -11 -27 -33 -186
-180 -59 -55 -117 -106 -129 -114 -12 -8 -58 -50 -102 -94 -45 -44 -90 -84
-100 -90 -11 -6 -41 -32 -69 -58 -27 -26 -64 -58 -80 -72 -17 -14 -37 -37 -44
-51 -8 -14 -22 -28 -31 -31 -9 -3 -30 -20 -47 -38 -114 -122 -281 -277 -309
-287 -13 -5 -34 -25 -45 -44 -11 -20 -42 -49 -67 -65 -65 -41 -86 -61 -107
-98 -10 -17 -30 -37 -44 -43 -38 -17 -154 -25 -179 -11 -27 14 -77 87 -86 125
-4 16 -29 56 -55 87 -30 36 -51 72 -56 95 -3 21 -15 49 -26 62 -10 14 -19 29
-19 34 0 5 -24 37 -54 72 -35 42 -56 76 -60 102 -4 21 -23 62 -42 89 -18 28
-52 77 -74 110 -23 32 -45 78 -49 101 -5 23 -19 56 -32 73 -13 17 -34 44 -45
59 -12 15 -25 38 -29 52 -4 14 -17 41 -29 60 -12 19 -26 42 -31 51 -6 9 -28
41 -51 70 -22 30 -46 75 -53 101 -7 26 -35 77 -62 115 -27 37 -49 70 -49 74 0
3 -11 19 -24 34 -13 16 -27 44 -31 64 -9 49 -50 118 -75 126 -24 8 -74 103
-85 160 -5 28 -21 55 -55 91 -26 27 -51 61 -55 75 -4 13 -18 40 -31 59 -13 19
-24 44 -24 56 0 12 -22 51 -50 88 -27 37 -53 79 -56 93 -11 41 -61 132 -95
171 -36 41 -66 103 -74 155 -4 24 -23 58 -56 97 -37 45 -52 72 -59 110 -5 27
-16 62 -23 77 -8 16 -17 60 -21 99 -7 68 -6 73 20 103 53 63 33 61 601 61 414
0 523 -3 543 -14 14 -7 43 -23 66 -34 48 -26 89 -64 164 -151 47 -54 69 -70
149 -108 52 -24 106 -53 120 -63 14 -11 71 -28 126 -39 100 -20 100 -20 197
-1 113 23 139 32 157 53 7 9 29 21 49 28 72 23 137 68 177 121 22 29 64 79 93
110 32 36 52 67 52 82 0 13 9 44 20 70 18 40 21 71 25 257 4 237 7 247 77 281
21 10 48 36 64 63 16 25 36 47 44 50 16 5 73 58 158 148 29 31 61 58 71 62 9
3 25 23 35 45 13 31 29 46 64 63 26 12 60 40 77 62 16 22 60 67 97 100 36 33
69 68 72 77 4 9 30 34 58 55 33 25 57 53 69 81 15 34 28 47 63 63 24 10 57 35
73 54 15 19 55 61 87 92 33 32 67 67 77 78 27 30 91 92 167 163 105 100 122
117 122 123 0 9 82 90 123 121 22 17 40 43 48 70 12 36 20 45 56 58 29 11 80
54 177 150 75 74 150 146 167 159 17 13 35 36 41 50 5 14 27 40 49 56 23 17
53 43 67 58 56 59 81 84 135 131 31 27 61 61 67 76 6 15 26 34 44 43 18 8 55
42 82 75 27 33 63 67 81 77 17 9 42 32 55 50 13 17 58 62 101 100 42 37 77 72
77 77 0 6 34 42 76 81 42 39 82 83 90 98 11 22 23 28 64 34 27 4 52 11 56 16
7 12 22 11 67 -5z m2378 -587 c63 -29 70 -35 85 -78 9 -25 25 -67 36 -93 29
-65 21 -140 -25 -238 -44 -93 -77 -125 -137 -134 -25 -3 -66 -11 -92 -18 -35
-9 -56 -9 -85 0 -21 6 -60 14 -87 17 -41 6 -55 13 -85 48 -20 23 -52 57 -71
75 l-35 33 0 122 0 122 38 50 c26 35 58 61 105 87 65 35 70 36 176 37 102 1
114 -1 177 -30z m-7454 -206 c20 -9 43 -28 52 -43 9 -14 37 -45 63 -69 34 -31
49 -53 54 -80 3 -20 12 -46 20 -58 18 -29 17 -63 -1 -87 -8 -11 -15 -30 -15
-43 0 -40 -27 -79 -92 -132 -35 -28 -70 -58 -79 -66 -43 -40 -106 -75 -139
-75 -29 0 -44 8 -75 41 -22 22 -70 60 -107 85 -57 38 -71 54 -102 115 -46 91
-47 133 -3 215 59 111 107 163 187 201 39 19 195 16 237 -4z m8522 -1108 c78
-19 165 -86 175 -137 3 -17 12 -39 20 -47 20 -24 26 -69 17 -141 -9 -72 -45
-136 -101 -180 -18 -14 -46 -38 -63 -55 l-30 -30 -131 0 -131 0 -62 48 c-35
27 -63 52 -63 56 0 5 -12 26 -26 47 -25 36 -27 48 -28 149 -1 107 0 112 34
178 19 38 42 74 50 82 8 8 47 19 85 25 38 6 71 13 74 16 10 9 120 3 180 -11z
m-3979 -55 c22 -25 44 -60 49 -78 5 -18 21 -42 35 -53 25 -19 26 -26 26 -113
0 -79 -3 -95 -20 -114 -12 -12 -25 -22 -30 -22 -6 0 -10 -5 -10 -11 0 -23 -82
-134 -103 -141 -35 -10 -303 -9 -332 2 -14 5 -33 25 -41 42 -24 52 -59 107
-81 127 -15 14 -22 37 -26 88 -8 78 3 129 32 149 11 8 22 27 26 44 4 16 11 32
16 36 5 3 21 23 34 44 13 21 35 41 47 43 13 3 94 5 181 4 l157 -2 40 -45z
m-3172 -1022 c22 -18 54 -52 71 -74 16 -23 43 -51 60 -63 36 -26 51 -71 51
-153 0 -65 -13 -101 -45 -122 -12 -8 -36 -39 -53 -69 -24 -43 -43 -61 -89 -87
-54 -31 -65 -33 -154 -34 -90 -1 -99 1 -165 34 -75 38 -90 51 -98 92 -3 15
-21 49 -41 76 -61 86 -49 154 60 322 23 36 49 71 58 79 27 22 74 29 193 30
111 1 111 1 152 -31z"/>
<path d="M18090 6670 c-36 -10 -84 -19 -107 -19 -31 -1 -46 -7 -60 -24 -10
-13 -40 -32 -67 -42 -29 -11 -64 -35 -90 -62 -22 -24 -64 -57 -92 -73 -45 -25
-53 -35 -72 -88 -12 -32 -22 -73 -22 -91 0 -37 -34 -137 -54 -160 -10 -12 -15
-52 -18 -151 -3 -145 -1 -136 -68 -225 -16 -22 -37 -55 -47 -73 -9 -18 -38
-46 -64 -63 -26 -17 -57 -45 -67 -63 -11 -19 -32 -42 -47 -52 -15 -11 -96 -88
-180 -171 -85 -84 -158 -153 -163 -153 -5 0 -31 -29 -57 -65 -27 -36 -51 -65
-55 -65 -7 0 -136 -125 -147 -143 -4 -7 -28 -28 -53 -47 -25 -19 -56 -48 -70
-65 -14 -16 -73 -79 -133 -138 -59 -60 -130 -135 -158 -167 -28 -32 -66 -69
-85 -82 -19 -13 -36 -30 -39 -39 -6 -18 -72 -89 -82 -89 -4 0 -29 -24 -57 -53
-28 -29 -82 -83 -121 -120 -38 -37 -78 -75 -87 -85 -28 -28 -487 -478 -594
-583 -55 -53 -119 -109 -144 -124 -25 -16 -58 -40 -73 -54 l-28 -26 -252 -6
c-189 -4 -262 -10 -292 -21 -22 -8 -57 -18 -77 -22 -27 -5 -42 -15 -53 -34 -8
-15 -38 -52 -67 -83 -29 -31 -68 -84 -85 -118 -30 -57 -33 -70 -33 -155 0
-103 -12 -77 109 -243 17 -23 31 -46 31 -51 0 -6 15 -17 33 -27 54 -28 105
-60 127 -80 22 -20 47 -20 1854 -20 l1832 0 35 27 c92 74 98 78 126 78 14 0
30 11 40 28 10 15 23 30 30 35 7 4 15 23 19 43 3 19 16 41 27 49 17 12 21 29
27 112 9 129 0 221 -24 238 -9 7 -21 29 -27 48 -5 20 -18 38 -28 42 -21 6 -59
45 -75 76 -9 18 -25 25 -83 35 -39 6 -77 16 -85 20 -7 5 -470 11 -1028 14
l-1015 5 -32 23 c-36 25 -41 46 -17 77 8 11 19 37 25 59 10 37 22 54 69 100
114 112 349 346 467 466 68 69 128 130 134 135 6 6 30 30 53 54 22 24 47 49
54 55 13 11 147 143 170 167 21 22 150 153 159 161 4 4 121 119 258 255 138
137 293 289 345 339 52 50 109 106 125 124 17 18 50 42 75 53 25 11 55 30 67
43 22 24 24 24 231 23 205 -1 210 -1 264 25 30 14 62 26 70 26 8 0 23 10 34
21 10 12 37 30 59 41 69 33 85 43 85 49 0 4 15 25 33 48 64 81 74 96 81 126 4
16 24 58 44 93 20 35 43 73 49 85 8 14 13 67 13 147 0 104 -3 130 -17 150 -29
41 -81 149 -89 183 -8 37 -35 76 -82 121 -19 17 -57 54 -85 82 -38 38 -63 53
-92 58 -22 4 -56 18 -75 31 -19 12 -58 26 -87 29 -28 4 -68 13 -87 21 -45 19
-84 18 -166 -5z m271 -377 c16 -18 36 -33 43 -33 19 0 60 -57 79 -110 40 -113
22 -279 -41 -377 -29 -46 -37 -51 -109 -74 -151 -47 -297 -22 -393 68 -36 34
-50 55 -55 84 -4 22 -10 39 -14 39 -29 0 -43 174 -18 215 6 12 21 37 32 55 20
35 121 141 153 160 10 6 73 9 155 8 l137 -3 31 -32z m-1115 -3343 l74 0 0
-210 0 -210 -410 0 -410 0 0 35 0 35 -140 0 c-133 0 -140 -1 -140 -20 0 -17
-7 -20 -42 -20 -24 0 -50 5 -58 10 -13 8 -12 10 3 10 9 0 17 7 17 15 0 31 33
55 77 55 41 0 43 1 43 30 l0 30 60 0 60 0 0 35 c0 33 2 35 35 35 32 0 35 2 35
30 l0 30 75 0 75 0 0 55 0 55 85 0 85 0 0 -85 0 -85 85 0 85 0 0 30 c0 29 1
30 50 30 l50 0 0 55 0 55 60 0 60 0 2 33 1 32 4 -32 4 -33 75 0z m-1516 -70
l0 -70 -110 0 -110 0 0 -95 0 -95 110 0 c67 0 110 -4 110 -10 0 -6 -27 -10
-60 -10 -47 0 -60 -3 -60 -15 0 -8 -4 -15 -9 -15 -5 0 -11 7 -15 15 -5 13 -55
15 -371 15 l-365 0 0 90 c0 89 0 90 25 90 21 0 25 5 25 30 l0 30 120 0 120 0
0 25 c0 20 5 25 25 25 l25 0 0 -135 0 -135 100 0 100 0 0 45 c0 43 1 45 30 45
28 0 30 3 30 35 0 28 4 35 20 35 18 0 20 7 20 55 l0 55 65 0 65 0 0 30 c0 30
1 30 55 30 l55 0 0 -70z m340 0 c0 -5 -4 -10 -10 -10 -5 0 -10 5 -10 10 0 6 5
10 10 10 6 0 10 -4 10 -10z m-1430 -70 c0 -27 3 -30 30 -30 17 0 30 -4 30 -10
0 -5 -13 -10 -30 -10 l-30 0 -1 -67 c-1 -38 -3 -60 -6 -50 -4 14 -17 17 -84
17 l-79 0 0 60 0 60 50 0 c49 0 50 1 50 30 0 28 3 30 35 30 32 0 35 -2 35 -30z
m1330 -10 c0 -22 -4 -40 -10 -40 -5 0 -10 18 -10 40 0 22 5 40 10 40 6 0 10
-18 10 -40z m1890 0 c0 -36 -2 -40 -25 -40 -22 0 -25 4 -25 40 0 36 3 40 25
40 23 0 25 -4 25 -40z m-52 -281 c75 -1 96 -3 69 -9 -45 -8 -60 -20 -25 -20
26 0 38 -16 38 -51 0 -16 -7 -19 -55 -19 -52 0 -55 1 -55 25 0 14 5 25 10 25
16 0 11 27 -6 34 -9 3 -51 6 -95 6 -64 0 -79 -3 -79 -15 0 -8 -7 -15 -15 -15
-8 0 -15 4 -15 10 0 5 -15 14 -32 19 l-33 9 33 1 c32 1 32 1 32 51 l0 50 55 0
55 0 2 48 c1 26 4 3 5 -50 l4 -98 107 -1z m292 91 c0 -5 -11 -10 -25 -10 -14
0 -28 -7 -31 -15 -4 -8 -11 -15 -18 -15 -6 0 -28 -9 -49 -20 -47 -25 -47 -25
-47 5 0 23 3 25 50 25 43 0 50 3 50 20 0 16 7 20 35 20 19 0 35 -4 35 -10z"/>
<path d="M15110 1413 c-8 -3 -28 -17 -43 -29 -16 -13 -37 -24 -48 -24 -25 0
-67 -41 -80 -80 -6 -16 -26 -41 -45 -55 -19 -14 -34 -35 -34 -45 0 -10 -9 -34
-19 -52 -29 -49 -25 -206 5 -240 12 -13 27 -33 33 -45 9 -18 20 -23 48 -23 29
0 34 3 25 12 -7 7 -12 42 -12 85 l0 73 -30 0 c-16 0 -30 5 -30 10 0 6 7 10 15
10 8 0 15 7 15 15 0 8 7 15 15 15 11 0 15 13 15 54 0 30 5 58 10 61 6 3 10 15
10 26 0 10 7 19 15 19 8 0 15 7 15 15 0 11 12 15 50 15 50 0 50 0 50 33 0 53
42 67 193 67 134 0 167 -5 167 -26 0 -10 13 -14 45 -14 38 0 45 3 45 20 0 20
7 20 515 20 337 0 515 3 515 10 0 6 33 10 79 10 44 0 83 -4 86 -10 8 -14 215
-13 215 0 0 7 60 10 175 10 96 -1 179 1 185 5 16 10 12 42 -7 51 -21 9 -2170
16 -2193 7z"/>
<path d="M17380 1305 c0 -26 41 -62 60 -50 20 12 10 45 -20 60 -38 20 -40 19
-40 -10z"/>
<path d="M17521 1173 c-5 -10 -9 -84 -9 -165 -1 -134 1 -146 16 -141 9 4 20
11 24 17 9 13 11 268 2 290 -8 21 -21 20 -33 -1z"/>
<path d="M14960 758 c0 -21 9 -41 27 -60 52 -54 82 -25 47 45 -19 36 -31 47
-56 47 -14 0 -18 -8 -18 -32z"/>
<path d="M15068 649 c-4 -27 0 -32 33 -50 56 -28 71 -25 67 13 -2 26 -10 36
-38 50 -49 24 -57 22 -62 -13z"/>
</g>
</svg>
